<svg enable-background="new 0 0 580.1 408.3" viewBox="0 0 580.1 408.3" xmlns="http://www.w3.org/2000/svg"><g fill="#fff"><path clip-rule="evenodd" d="m370.6 369.1v-14.6h-5.3c-11.9 0-17.9 3.7-17.9 11.1 0 6.4 3.2 9.6 9.5 9.6 4.4.1 9-1.9 13.7-6.1zm12.6 14.2h-9.9l-1-6.7c-6.1 5.3-12.4 7.9-19 7.9-12.3 0-18.5-5.7-18.5-17 0-6.5 2.5-11.6 7.5-15.2 5.4-3.9 13.4-5.8 23.8-5.8h4.4v-5.5c0-7.3-4.2-11-12.7-11-5.5 0-11.5 1.2-18 3.6l-1.9-7.8c7.7-3.4 15.4-5.1 23.3-5.1 14.6 0 21.8 6.2 21.8 18.6v44zm-52-61.4c-4 22.7-10.4 43.2-19 61.4h-15.7l-18.9-61.4h13.7l11.7 37.8 2.6 11.4c6.1-16.8 10.2-33.1 12.2-49.1h13.4zm-74.3 47.2v-14.6h-5.3c-11.9 0-17.9 3.7-17.9 11.1 0 6.4 3.2 9.6 9.5 9.6 4.4.1 8.9-1.9 13.7-6.1zm12.6 14.2h-9.9l-1-6.7c-6.1 5.3-12.4 7.9-19 7.9-12.3 0-18.5-5.7-18.5-17 0-6.5 2.5-11.6 7.5-15.2 5.4-3.9 13.4-5.8 23.8-5.8h4.4v-5.5c0-7.3-4.2-11-12.7-11-5.5 0-11.5 1.2-18 3.6l-1.9-7.8c7.7-3.4 15.4-5.1 23.3-5.1 14.6 0 21.8 6.2 21.8 18.6v44zm-59.9-8.6c0 13.4-4.5 23.5-13.6 30.2l-6.5-5.5c2.9-3.4 4.8-7.4 5.8-12.1.7-3.2 1-7.6 1-13.3v-74h13.3zm182.5-42.5h2.2v-8.5h2.9v-1.7h-8.1v1.7h3zm16.8 0h2.1v-10.2h-3.1l-2.5 7-2.8-7h-3v10.2h2v-7.8h.1l2.9 7.8h1.5l2.9-7.8v7.8" fill-rule="evenodd"/><path d="m328.6 197.3c-6.9 1.9-22.4 5.1-44.6 5.1-21.8 0-39.5-3.7-39.6-8.1 0-2.9 3.5-4.2 3.5-4.2l-.6-.4c-10.4 1.8-20.1 4.7-20 9 .1 7.7 29.7 13.5 56.7 13.5 23 0 45.1-3.9 55.1-8.9zm-73.6 23.9c-4.8 1-15.4 3.4-15.4 8.5 0 7.1 22.5 12.5 44.3 12.5 29.9 0 42.2-7.7 42.7-8.1l-12.4-7.2c-5.3 1.3-14.2 3.2-30.3 3.2-17.9 0-29.6-3.1-29.6-6.4 0-.7.4-1.6 1.3-2.2zm122.3-47.7c-.8 16.1-15.7 26.1-30.5 34.5l1.3.8c15.8-4.5 44.1-17.4 41.7-37.4-1.2-9.9-10.2-17-22.1-17-3.7 0-7 .7-9.6 1.5l-.6 1.4c10.7-2.1 20.4 5.7 19.8 16.2zm-93.7 94.3c41.6-.4 88.2-8.5 88.1-22.2 0-2.5-1.6-4.2-3-5.2l-.7.4c-3.9 10.6-36.4 18.4-84.4 18.9-31 .3-74-7.2-74-15.7-.1-8.6 20.3-13.3 20.3-13.3l-1.4-.8c-13.7 1.9-38.9 8.4-38.8 17.9-.1 13.5 57.9 20.3 93.9 20zm-4.4 9.7c-16.5.1-36.8-1.2-53.8-4.1l-1.6.9c16.9 5 40.5 8 66.4 7.7 50.9-.4 92.1-13.1 92.9-28.2l-.6-.3c-3.3 4.2-25.3 23.4-103.3 24zm-63.7-107.7c0-7.7 29.1-12 42.7-13l1.3.7c-5.2.9-26.1 4.6-26.1 9.4 0 5.2 32 8.7 50.6 8.7 31.6 0 53.1-4.8 58.8-6.4l8.1 4.7c-5.5 2.7-29.3 9.8-66.9 9.8-41.8.1-68.5-8.1-68.5-13.9"/><path d="m341.9 62.6-.7-.4c-12.7 4.3-51.9 19.7-51.9 48.5 0 16.3 15.9 25.3 15.9 40.6 0 5.5-3.1 10.6-5.6 13.6l1.3.7c6.6-4.3 18.3-13.6 18.3-25.7 0-10.2-14.1-22.4-14.1-35.5 0-20.6 27.2-36.8 36.8-41.8zm-19.3-37.8c0 42.6-58.4 59-58.4 89.3 0 21.3 14.1 34.6 21.9 43.1l-.6.4c-9.9-6.2-35.8-21.7-35.8-47.3 0-35.9 67.1-53.1 67.1-93.9 0-5-.7-8.9-1.3-11l.7-.4c2.2 2.7 6.4 9.4 6.4 19.8"/></g></svg>